<svg xmlns="http://www.w3.org/2000/svg" xmlns:xlink="http://www.w3.org/1999/xlink" width="150" height="150" viewBox="0 0 150 150">
  <defs>
    <clipPath id="clip-path">
      <rect id="Rectangle_1" data-name="Rectangle 1" width="150" height="150" transform="translate(0 0)" fill="none"/>
    </clipPath>
  </defs>
  <g id="Group_12584" data-name="Group 12584" transform="translate(13 50)">
    <g id="Group_1" data-name="Group 1" transform="translate(0 -22)" clip-path="url(#clip-path)">
      <path id="Path_1" data-name="Path 1" d="M8.13,25.278S77.553,19.428,0,77.111c0,0,99.748-64.246,8.13-51.833" transform="translate(0 -1.075)" fill="#f8971d"/>
      <path id="Path_2" data-name="Path 2" d="M56.992,0S30.852,59.7,112.218,2.077c0,0-59.284,36.4-55.226-2.077" transform="translate(-2.405 0)" fill="#6c207e"/>
      <path id="Path_3" data-name="Path 3" d="M130.095,9.516S29.929,35.657,113.65,70.137c.585.241-.176-.35.366-.013,0,0-61.006-29.22,16.079-60.608" transform="translate(-3.643 -0.432)" fill="#c1cd23"/>
      <path id="Path_4" data-name="Path 4" d="M6.546,97.487S48.848,9.229,100.6,85.2c0,0-46.884-52.784-94.053,12.287" transform="translate(-0.297 -2.467)" fill="#00539b"/>
      <!-- <path id="Path_5" data-name="Path 5" d="M148.686,47.686a10.381,10.381,0,0,1-2.724,5.585c-3.489,3.536-9.032,3.536-10.8,3.536a24.536,24.536,0,0,1-6.068-.669c-4.491-1.229-8.027-3.985-8.027-11.69,0-.558,0-1.154.047-1.75.1-3.09.526-6.925,2.963-9.494,3.584-3.686,9.6-3.686,11.325-3.686a22.117,22.117,0,0,1,6.259.782,11.162,11.162,0,0,1,4.682,2.681c2.437,2.457,2.819,6.627,2.819,9.792a24.5,24.5,0,0,1-.477,4.914m-4.827-10.573c-.956-3.351-3.584-5.361-8.457-5.361a13.033,13.033,0,0,0-3.632.447c-4.635,1.34-5.924,4.989-5.924,11.988,0,2.345.334,5.4,1.673,7.3,2.054,2.867,5.542,3.089,7.454,3.089a12.752,12.752,0,0,0,3.776-.52,7.468,7.468,0,0,0,3.153-1.825c2.2-2.2,2.485-6.812,2.485-9.791a19.979,19.979,0,0,0-.526-5.324" transform="translate(-5.494 -1.34)" fill="#00539b"/> -->
      <!-- <path id="Path_6" data-name="Path 6" d="M160.5,48.019c-2.15-.521-5.829-1.415-5.829-4.84,0-3.649,3.536-5.51,8.506-5.51a12.313,12.313,0,0,1,5.972,1.34,4.694,4.694,0,0,1,2.245,4.356H167.48a2.9,2.9,0,0,0-.144-1.638c-.62-1.415-2.2-2.085-4.347-2.085-2.772,0-4.54,1.229-4.54,2.718,0,1.936,2.485,2.532,4.97,3.165l1.625.372a14.8,14.8,0,0,1,4.635,1.675,4.582,4.582,0,0,1,2.2,3.872c0,1.266-.62,5.622-8.887,5.622-3.822,0-9.223-.745-8.936-6.143h4.062c-.1,1.452.1,4.058,5.208,4.058.622,0,4.54,0,4.54-2.941,0-2.308-2.389-2.867-4.73-3.388Z" transform="translate(-6.99 -1.71)" fill="#00539b"/> -->
      <!-- <path id="Path_7" data-name="Path 7" d="M196.3,56.347h-4.11V45.4a15.718,15.718,0,0,0-.094-2.606c-.1-.707-.526-3.388-4.683-3.388a8.976,8.976,0,0,0-2.771.41c-3.105,1.005-3.2,2.829-3.249,3.984V56.347h-4.062V30.025h4.062v9.792a12.633,12.633,0,0,1,7.789-2.494,8.153,8.153,0,0,1,5.733,1.9c1.338,1.378,1.338,3.09,1.385,4.5Z" transform="translate(-8.047 -1.363)" fill="#00539b"/> -->
      <!-- <path id="Path_8" data-name="Path 8" d="M221.893,56.694h-3.105c-1.817,0-2.1-.484-2.009-2.085a10.448,10.448,0,0,1-2.866,1.564,14.547,14.547,0,0,1-4.922.894c-5.352,0-6.738-3.239-6.738-5.361a4.386,4.386,0,0,1,.574-2.2c1.625-2.941,5.59-3.314,9.94-3.723l4.012-.335V43.775c-.047-1.638-.1-4.021-4.443-4.021a6.525,6.525,0,0,0-4.061,1.08A3.669,3.669,0,0,0,206.936,44h-3.87a5.24,5.24,0,0,1,.669-3.053c1.242-2.01,4.54-3.276,8.983-3.276,1.672,0,4.779.261,6.4,1.489,1.672,1.3,1.672,3.127,1.672,4.468V53.864a3.685,3.685,0,0,0,.239,1.75.988.988,0,0,0,.861.633ZM216.779,47.2l-1.193.112c-3.727.335-5.83.707-6.882,1.191a3.177,3.177,0,0,0-2.15,2.978c0,2.085,1.768,3.462,4.348,3.462a8.78,8.78,0,0,0,3.679-.856,3.633,3.633,0,0,0,2.2-3.686Z" transform="translate(-9.178 -1.71)" fill="#00539b"/> -->
      <!-- <path id="Path_9" data-name="Path 9" d="M251.436,56.713h-4.4L242.6,44.837c-.43-1.229-.477-1.34-.908-2.643a20.689,20.689,0,0,1-.669,1.973l-5.064,12.547h-4.347L224.679,38.1h4.347l4.4,12.993a16.343,16.343,0,0,1,.811,2.569c.383-1.266.479-1.415.909-2.681L240.3,38.1h3.775l4.4,12.137c.526,1.638.575,1.824,1.052,3.425.239-.968.335-1.266.621-2.159l4.779-13.4h3.584Z" transform="translate(-10.196 -1.729)" fill="#00539b"/> -->
      <!-- <path id="Path_10" data-name="Path 10" d="M281.154,56.694h-3.105c-1.816,0-2.1-.484-2.007-2.085a10.473,10.473,0,0,1-2.867,1.564,14.541,14.541,0,0,1-4.921.894c-5.353,0-6.739-3.239-6.739-5.361a4.386,4.386,0,0,1,.575-2.2c1.624-2.941,5.589-3.314,9.939-3.723l4.013-.335V43.775c-.048-1.638-.1-4.021-4.443-4.021a6.529,6.529,0,0,0-4.062,1.08A3.667,3.667,0,0,0,266.2,44h-3.87A5.232,5.232,0,0,1,263,40.945c1.242-2.01,4.539-3.276,8.983-3.276,1.673,0,4.778.261,6.4,1.489,1.673,1.3,1.673,3.127,1.673,4.468V53.864a3.686,3.686,0,0,0,.239,1.75.987.987,0,0,0,.859.633ZM276.043,47.2l-1.194.112c-3.727.335-5.829.707-6.881,1.191a3.176,3.176,0,0,0-2.15,2.978c0,2.085,1.768,3.462,4.348,3.462a8.772,8.772,0,0,0,3.678-.856,3.634,3.634,0,0,0,2.2-3.686Z" transform="translate(-11.868 -1.71)" fill="#00539b"/> -->
      <!-- <path id="Path_11" data-name="Path 11" d="M289.657,37.561a3.887,3.887,0,1,1-.017,0Zm-.017.609a3.145,3.145,0,1,0,.017,0Zm-.731,5.583h-.695V39.386a7.882,7.882,0,0,1,1.234-.1,2.3,2.3,0,0,1,1.357.329,1.044,1.044,0,0,1,.4.9,1.086,1.086,0,0,1-.852,1.061v.035c.382.07.642.417.729,1.061a3.607,3.607,0,0,0,.279,1.079h-.73a3.23,3.23,0,0,1-.3-1.113.816.816,0,0,0-.938-.766h-.488Zm0-2.418h.5c.575,0,1.063-.208,1.063-.747,0-.383-.279-.766-1.062-.766a3.424,3.424,0,0,0-.5.035Z" transform="translate(-12.968 -1.705)" fill="#00539b"/> -->
    </g>
  </g>
</svg>
